# xmcd
#
# Track frame offsets: 
#        150
#        15673
#        29892
#        42734
#        57465
#        68359
#        88372
#        104194
#        115603
#        129077
#        148315
#        165119
#        179339
#        193567
#        210414
#        222885
#
# Disc length: 3168 seconds
#
# Revision: 1
# Processed by: cddbd v1.5.2PL0 Copyright (c) Steve Scherf et al.
# Submitted via: ExactAudioCopy v0.99pb5
#
DISCID=eb0c5e10
DTITLE=Bill Davison - Quadromania [CD3]
DYEAR=2005
DGENRE=Jazz
TTITLE0=Sensation
TTITLE1=Hotter Than That
TTITLE2=Tishomingo Blues
TTITLE3=Big Butter And Egg Man
TTITLE4=Eccentric
TTITLE5=It's Right Here For You
TTITLE6=None Of My Jelly Roll
TTITLE7=Avalon
TTITLE8=Swinging Down The Lane
TTITLE9=Clarinet Marmalade
TTITLE10=As Long As I Live
TTITLE11=St. Louis Èlues
TTITLE12=Shim-E-Sha-Wabble
TTITLE13=Trombone Preachin' Blues
TTITLE14=Dardanella
TTITLE15=Skelecton Jangle
EXTD=
EXTT0=
EXTT1=
EXTT2=
EXTT3=
EXTT4=
EXTT5=
EXTT6=
EXTT7=
EXTT8=
EXTT9=
EXTT10=
EXTT11=
EXTT12=
EXTT13=
EXTT14=
EXTT15=
PLAYORDER=
